<svg width="996" height="111" viewBox="0 0 996 111" fill="none" xmlns="http://www.w3.org/2000/svg">
<g clip-path="url(#clip0_319_33)">
<rect width="996" height="111" fill="white"/>
<rect x="-1" width="997" height="111" fill="#3BB85D"/>
<g clip-path="url(#clip1_319_33)">
<path d="M928.486 114.971L942.34 105.263L932.106 90.6582L918.252 100.366L928.486 114.971ZM949.267 100.409L963.121 90.7015L952.887 76.0967L939.033 85.8043L949.267 100.409ZM970.048 85.8477L983.902 76.14L973.669 61.5352L959.815 71.2429L970.048 85.8477ZM935.847 169.695C932.038 172.365 928.277 173.935 924.565 174.406C920.846 174.877 918.284 174.109 916.877 172.1L886.176 128.286L912.387 77.256L967.804 38.4254C971.613 35.7558 975.377 34.1841 979.093 33.7102C982.807 33.242 985.367 34.012 986.774 36.0202L1027.71 94.4393C1029.12 96.4475 1028.97 99.1169 1027.26 102.448C1025.54 105.779 1022.78 108.78 1018.97 111.449L935.847 169.695ZM930.731 162.393L1013.86 104.147L972.92 45.7278L923.392 80.4326L902.204 121.682L930.731 162.393Z" fill="white" fill-opacity="0.2"/>
</g>
<g clip-path="url(#clip2_319_33)">
<path d="M75.165 107.971L61.3109 98.2629L71.5445 83.6582L85.3986 93.3658L75.165 107.971ZM54.3838 93.4091L40.5298 83.7015L50.7634 69.0967L64.6175 78.8043L54.3838 93.4091ZM33.6027 78.8477L19.7487 69.14L29.9823 54.5352L43.8364 64.2429L33.6027 78.8477ZM67.8035 162.695C71.6134 165.365 75.3743 166.935 79.0863 167.406C82.8046 167.877 85.3673 167.109 86.7744 165.1L117.475 121.286L91.2637 70.256L35.8474 31.4254C32.0375 28.7558 28.2743 27.1841 24.5577 26.7102C20.844 26.242 18.2836 27.012 16.8765 29.0202L-24.0582 87.4393C-25.4653 89.4475 -25.315 92.1169 -23.6071 95.4477C-21.8929 98.7792 -19.1308 101.78 -15.321 104.449L67.8035 162.695ZM72.9203 155.393L-10.2041 97.147L30.7305 38.7278L80.2589 73.4326L101.447 114.682L72.9203 155.393Z" fill="white" fill-opacity="0.2"/>
</g>
<path d="M597.625 46.2083H600.208V41.0416H597.625V46.2083ZM601.5 46.2083H604.083V41.0416H601.5V46.2083ZM605.375 46.2083H607.958V41.0416H605.375V46.2083ZM593.75 60.4166C593.04 60.4166 592.432 60.1638 591.926 59.6584C591.42 59.152 591.167 58.5437 591.167 57.8333V42.3333L598.917 34.5833H609.25C609.96 34.5833 610.569 34.836 611.075 35.3415C611.581 35.8478 611.833 36.4562 611.833 37.1666V57.8333C611.833 58.5437 611.581 59.152 611.075 59.6584C610.569 60.1638 609.96 60.4166 609.25 60.4166H593.75ZM593.75 57.8333H609.25V37.1666H600.015L593.75 43.4312V57.8333Z" fill="white"/>
<path d="M396.48 63.576C393.088 63.576 390.176 62.856 387.744 61.416C385.312 59.944 383.44 57.912 382.128 55.32C380.816 52.696 380.16 49.672 380.16 46.248C380.16 42.824 380.816 39.8 382.128 37.176C383.44 34.552 385.312 32.504 387.744 31.032C390.176 29.56 393.088 28.824 396.48 28.824C400.512 28.824 403.808 29.832 406.368 31.848C408.96 33.832 410.576 36.632 411.216 40.248H404.448C404.032 38.424 403.136 37 401.76 35.976C400.416 34.92 398.624 34.392 396.384 34.392C393.28 34.392 390.848 35.448 389.088 37.56C387.328 39.672 386.448 42.568 386.448 46.248C386.448 49.928 387.328 52.824 389.088 54.936C390.848 57.016 393.28 58.056 396.384 58.056C398.624 58.056 400.416 57.576 401.76 56.616C403.136 55.624 404.032 54.264 404.448 52.536H411.216C410.576 55.992 408.96 58.696 406.368 60.648C403.808 62.6 400.512 63.576 396.48 63.576ZM424.719 63.576C422.671 63.576 420.991 63.256 419.679 62.616C418.367 61.944 417.391 61.064 416.751 59.976C416.111 58.888 415.791 57.688 415.791 56.376C415.791 54.168 416.655 52.376 418.383 51C420.111 49.624 422.703 48.936 426.159 48.936H432.207V48.36C432.207 46.728 431.743 45.528 430.815 44.76C429.887 43.992 428.735 43.608 427.359 43.608C426.111 43.608 425.023 43.912 424.095 44.52C423.167 45.096 422.591 45.96 422.367 47.112H416.367C416.527 45.384 417.103 43.88 418.095 42.6C419.119 41.32 420.431 40.344 422.031 39.672C423.631 38.968 425.423 38.616 427.407 38.616C430.799 38.616 433.471 39.464 435.423 41.16C437.375 42.856 438.351 45.256 438.351 48.36V63H433.119L432.543 59.16C431.839 60.44 430.847 61.496 429.567 62.328C428.319 63.16 426.703 63.576 424.719 63.576ZM426.111 58.776C427.871 58.776 429.231 58.2 430.191 57.048C431.183 55.896 431.807 54.472 432.063 52.776H426.831C425.199 52.776 424.031 53.08 423.327 53.688C422.623 54.264 422.271 54.984 422.271 55.848C422.271 56.776 422.623 57.496 423.327 58.008C424.031 58.52 424.959 58.776 426.111 58.776ZM444.214 63V39.192H449.686L450.262 43.656C451.126 42.12 452.294 40.904 453.766 40.008C455.27 39.08 457.03 38.616 459.046 38.616V45.096H457.318C455.974 45.096 454.774 45.304 453.718 45.72C452.662 46.136 451.83 46.856 451.222 47.88C450.646 48.904 450.358 50.328 450.358 52.152V63H444.214ZM473.767 63.576C471.527 63.576 469.527 63.032 467.767 61.944C466.007 60.856 464.615 59.368 463.591 57.48C462.567 55.592 462.055 53.448 462.055 51.048C462.055 48.648 462.567 46.52 463.591 44.664C464.615 42.776 466.007 41.304 467.767 40.248C469.527 39.16 471.527 38.616 473.767 38.616C475.559 38.616 477.127 38.952 478.471 39.624C479.815 40.296 480.903 41.24 481.735 42.456V28.44H487.879V63H482.407L481.735 59.592C480.967 60.648 479.943 61.576 478.663 62.376C477.415 63.176 475.783 63.576 473.767 63.576ZM475.063 58.2C477.047 58.2 478.663 57.544 479.911 56.232C481.191 54.888 481.831 53.176 481.831 51.096C481.831 49.016 481.191 47.32 479.911 46.008C478.663 44.664 477.047 43.992 475.063 43.992C473.111 43.992 471.495 44.648 470.215 45.96C468.935 47.272 468.295 48.968 468.295 51.048C468.295 53.128 468.935 54.84 470.215 56.184C471.495 57.528 473.111 58.2 475.063 58.2ZM503.976 63.576C501.864 63.576 500.008 63.24 498.408 62.568C496.808 61.864 495.528 60.904 494.568 59.688C493.608 58.472 493.032 57.064 492.84 55.464H499.032C499.224 56.392 499.736 57.192 500.568 57.864C501.432 58.504 502.536 58.824 503.88 58.824C505.224 58.824 506.2 58.552 506.808 58.008C507.448 57.464 507.768 56.84 507.768 56.136C507.768 55.112 507.32 54.424 506.424 54.072C505.528 53.688 504.28 53.32 502.68 52.968C501.656 52.744 500.616 52.472 499.56 52.152C498.504 51.832 497.528 51.432 496.632 50.952C495.768 50.44 495.064 49.8 494.52 49.032C493.976 48.232 493.704 47.256 493.704 46.104C493.704 43.992 494.536 42.216 496.2 40.776C497.896 39.336 500.264 38.616 503.304 38.616C506.12 38.616 508.36 39.272 510.024 40.584C511.72 41.896 512.728 43.704 513.048 46.008H507.24C506.888 44.248 505.56 43.368 503.256 43.368C502.104 43.368 501.208 43.592 500.568 44.04C499.96 44.488 499.656 45.048 499.656 45.72C499.656 46.424 500.12 46.984 501.048 47.4C501.976 47.816 503.208 48.2 504.744 48.552C506.408 48.936 507.928 49.368 509.304 49.848C510.712 50.296 511.832 50.984 512.664 51.912C513.496 52.808 513.912 54.104 513.912 55.8C513.944 57.272 513.56 58.6 512.76 59.784C511.96 60.968 510.808 61.896 509.304 62.568C507.8 63.24 506.024 63.576 503.976 63.576ZM527.562 63.576C525.514 63.576 523.834 63.256 522.522 62.616C521.21 61.944 520.234 61.064 519.594 59.976C518.954 58.888 518.634 57.688 518.634 56.376C518.634 54.168 519.498 52.376 521.226 51C522.954 49.624 525.546 48.936 529.002 48.936H535.05V48.36C535.05 46.728 534.586 45.528 533.658 44.76C532.73 43.992 531.578 43.608 530.202 43.608C528.954 43.608 527.866 43.912 526.938 44.52C526.01 45.096 525.434 45.96 525.21 47.112H519.21C519.37 45.384 519.946 43.88 520.938 42.6C521.962 41.32 523.274 40.344 524.874 39.672C526.474 38.968 528.266 38.616 530.25 38.616C533.642 38.616 536.314 39.464 538.266 41.16C540.218 42.856 541.194 45.256 541.194 48.36V63H535.962L535.386 59.16C534.682 60.44 533.69 61.496 532.41 62.328C531.162 63.16 529.546 63.576 527.562 63.576ZM528.954 58.776C530.714 58.776 532.074 58.2 533.034 57.048C534.026 55.896 534.65 54.472 534.906 52.776H529.674C528.042 52.776 526.874 53.08 526.17 53.688C525.466 54.264 525.114 54.984 525.114 55.848C525.114 56.776 525.466 57.496 526.17 58.008C526.874 58.52 527.802 58.776 528.954 58.776ZM547.058 63V28.44H553.202V63H547.058ZM571.047 63.576C568.647 63.576 566.519 63.064 564.663 62.04C562.807 61.016 561.351 59.576 560.295 57.72C559.239 55.864 558.711 53.72 558.711 51.288C558.711 48.824 559.223 46.632 560.247 44.712C561.303 42.792 562.743 41.304 564.567 40.248C566.423 39.16 568.599 38.616 571.095 38.616C573.431 38.616 575.495 39.128 577.287 40.152C579.079 41.176 580.471 42.584 581.463 44.376C582.487 46.136 582.999 48.104 582.999 50.28C582.999 50.632 582.983 51 582.951 51.384C582.951 51.768 582.935 52.168 582.903 52.584H564.807C564.935 54.44 565.575 55.896 566.727 56.952C567.911 58.008 569.335 58.536 570.999 58.536C572.247 58.536 573.287 58.264 574.119 57.72C574.983 57.144 575.623 56.408 576.039 55.512H582.279C581.831 57.016 581.079 58.392 580.023 59.64C578.999 60.856 577.719 61.816 576.183 62.52C574.679 63.224 572.967 63.576 571.047 63.576ZM571.095 43.608C569.591 43.608 568.263 44.04 567.111 44.904C565.959 45.736 565.223 47.016 564.903 48.744H576.759C576.663 47.176 576.087 45.928 575.031 45C573.975 44.072 572.663 43.608 571.095 43.608Z" fill="white"/>
<path d="M395.31 92V86.03H393.27V85H398.64V86.03H396.59V92H395.31ZM399.558 92V84.8H400.838V87.8C401.005 87.5267 401.228 87.3133 401.508 87.16C401.795 87 402.122 86.92 402.488 86.92C403.102 86.92 403.575 87.1133 403.908 87.5C404.248 87.8867 404.418 88.4533 404.418 89.2V92H403.148V89.32C403.148 88.8933 403.062 88.5667 402.888 88.34C402.722 88.1133 402.455 88 402.088 88C401.728 88 401.428 88.1267 401.188 88.38C400.955 88.6333 400.838 88.9867 400.838 89.44V92H399.558ZM408.052 92.12C407.552 92.12 407.109 92.0133 406.722 91.8C406.336 91.5867 406.032 91.2867 405.812 90.9C405.592 90.5133 405.482 90.0667 405.482 89.56C405.482 89.0467 405.589 88.59 405.802 88.19C406.022 87.79 406.322 87.48 406.702 87.26C407.089 87.0333 407.542 86.92 408.062 86.92C408.549 86.92 408.979 87.0267 409.352 87.24C409.726 87.4533 410.016 87.7467 410.222 88.12C410.436 88.4867 410.542 88.8967 410.542 89.35C410.542 89.4233 410.539 89.5 410.532 89.58C410.532 89.66 410.529 89.7433 410.522 89.83H406.752C406.779 90.2167 406.912 90.52 407.152 90.74C407.399 90.96 407.696 91.07 408.042 91.07C408.302 91.07 408.519 91.0133 408.692 90.9C408.872 90.78 409.006 90.6267 409.092 90.44H410.392C410.299 90.7533 410.142 91.04 409.922 91.3C409.709 91.5533 409.442 91.7533 409.122 91.9C408.809 92.0467 408.452 92.12 408.052 92.12ZM408.062 87.96C407.749 87.96 407.472 88.05 407.232 88.23C406.992 88.4033 406.839 88.67 406.772 89.03H409.242C409.222 88.7033 409.102 88.4433 408.882 88.25C408.662 88.0567 408.389 87.96 408.062 87.96ZM414.032 92V85H416.842C417.568 85 418.122 85.17 418.502 85.51C418.888 85.8433 419.082 86.2733 419.082 86.8C419.082 87.24 418.962 87.5933 418.722 87.86C418.488 88.12 418.202 88.2967 417.862 88.39C418.262 88.47 418.592 88.67 418.852 88.99C419.112 89.3033 419.242 89.67 419.242 90.09C419.242 90.6433 419.042 91.1 418.642 91.46C418.242 91.82 417.675 92 416.942 92H414.032ZM415.312 87.94H416.652C417.012 87.94 417.288 87.8567 417.482 87.69C417.675 87.5233 417.772 87.2867 417.772 86.98C417.772 86.6867 417.675 86.4567 417.482 86.29C417.295 86.1167 417.012 86.03 416.632 86.03H415.312V87.94ZM415.312 90.96H416.742C417.122 90.96 417.415 90.8733 417.622 90.7C417.835 90.52 417.942 90.27 417.942 89.95C417.942 89.6233 417.832 89.3667 417.612 89.18C417.392 88.9933 417.095 88.9 416.722 88.9H415.312V90.96ZM422.72 92.12C422.22 92.12 421.777 92.0133 421.39 91.8C421.004 91.5867 420.7 91.2867 420.48 90.9C420.26 90.5133 420.15 90.0667 420.15 89.56C420.15 89.0467 420.257 88.59 420.47 88.19C420.69 87.79 420.99 87.48 421.37 87.26C421.757 87.0333 422.21 86.92 422.73 86.92C423.217 86.92 423.647 87.0267 424.02 87.24C424.394 87.4533 424.684 87.7467 424.89 88.12C425.104 88.4867 425.21 88.8967 425.21 89.35C425.21 89.4233 425.207 89.5 425.2 89.58C425.2 89.66 425.197 89.7433 425.19 89.83H421.42C421.447 90.2167 421.58 90.52 421.82 90.74C422.067 90.96 422.364 91.07 422.71 91.07C422.97 91.07 423.187 91.0133 423.36 90.9C423.54 90.78 423.674 90.6267 423.76 90.44H425.06C424.967 90.7533 424.81 91.04 424.59 91.3C424.377 91.5533 424.11 91.7533 423.79 91.9C423.477 92.0467 423.12 92.12 422.72 92.12ZM422.73 87.96C422.417 87.96 422.14 88.05 421.9 88.23C421.66 88.4033 421.507 88.67 421.44 89.03H423.91C423.89 88.7033 423.77 88.4433 423.55 88.25C423.33 88.0567 423.057 87.96 422.73 87.96ZM428.409 92C427.889 92 427.472 91.8733 427.159 91.62C426.846 91.3667 426.689 90.9167 426.689 90.27V88.11H425.839V87.04H426.689L426.839 85.71H427.969V87.04H429.309V88.11H427.969V90.28C427.969 90.52 428.019 90.6867 428.119 90.78C428.226 90.8667 428.406 90.91 428.659 90.91H429.279V92H428.409ZM432.618 92C432.098 92 431.681 91.8733 431.368 91.62C431.055 91.3667 430.898 90.9167 430.898 90.27V88.11H430.048V87.04H430.898L431.048 85.71H432.178V87.04H433.518V88.11H432.178V90.28C432.178 90.52 432.228 90.6867 432.328 90.78C432.435 90.8667 432.615 90.91 432.868 90.91H433.488V92H432.618ZM436.9 92.12C436.4 92.12 435.957 92.0133 435.57 91.8C435.183 91.5867 434.88 91.2867 434.66 90.9C434.44 90.5133 434.33 90.0667 434.33 89.56C434.33 89.0467 434.437 88.59 434.65 88.19C434.87 87.79 435.17 87.48 435.55 87.26C435.937 87.0333 436.39 86.92 436.91 86.92C437.397 86.92 437.827 87.0267 438.2 87.24C438.573 87.4533 438.863 87.7467 439.07 88.12C439.283 88.4867 439.39 88.8967 439.39 89.35C439.39 89.4233 439.387 89.5 439.38 89.58C439.38 89.66 439.377 89.7433 439.37 89.83H435.6C435.627 90.2167 435.76 90.52 436 90.74C436.247 90.96 436.543 91.07 436.89 91.07C437.15 91.07 437.367 91.0133 437.54 90.9C437.72 90.78 437.853 90.6267 437.94 90.44H439.24C439.147 90.7533 438.99 91.04 438.77 91.3C438.557 91.5533 438.29 91.7533 437.97 91.9C437.657 92.0467 437.3 92.12 436.9 92.12ZM436.91 87.96C436.597 87.96 436.32 88.05 436.08 88.23C435.84 88.4033 435.687 88.67 435.62 89.03H438.09C438.07 88.7033 437.95 88.4433 437.73 88.25C437.51 88.0567 437.237 87.96 436.91 87.96ZM440.466 92V87.04H441.606L441.726 87.97C441.906 87.65 442.15 87.3967 442.456 87.21C442.77 87.0167 443.136 86.92 443.556 86.92V88.27H443.196C442.916 88.27 442.666 88.3133 442.446 88.4C442.226 88.4867 442.053 88.6367 441.926 88.85C441.806 89.0633 441.746 89.36 441.746 89.74V92H440.466ZM448.264 92L446.414 85H447.784L449.044 90.57L450.524 85H451.934L453.374 90.57L454.634 85H456.014L454.114 92H452.594L451.204 86.81L449.774 92H448.264ZM458.055 92.12C457.629 92.12 457.279 92.0533 457.005 91.92C456.732 91.78 456.529 91.5967 456.395 91.37C456.262 91.1433 456.195 90.8933 456.195 90.62C456.195 90.16 456.375 89.7867 456.735 89.5C457.095 89.2133 457.635 89.07 458.355 89.07H459.615V88.95C459.615 88.61 459.519 88.36 459.325 88.2C459.132 88.04 458.892 87.96 458.605 87.96C458.345 87.96 458.119 88.0233 457.925 88.15C457.732 88.27 457.612 88.45 457.565 88.69H456.315C456.349 88.33 456.469 88.0167 456.675 87.75C456.889 87.4833 457.162 87.28 457.495 87.14C457.829 86.9933 458.202 86.92 458.615 86.92C459.322 86.92 459.879 87.0967 460.285 87.45C460.692 87.8033 460.895 88.3033 460.895 88.95V92H459.805L459.685 91.2C459.539 91.4667 459.332 91.6867 459.065 91.86C458.805 92.0333 458.469 92.12 458.055 92.12ZM458.345 91.12C458.712 91.12 458.995 91 459.195 90.76C459.402 90.52 459.532 90.2233 459.585 89.87H458.495C458.155 89.87 457.912 89.9333 457.765 90.06C457.619 90.18 457.545 90.33 457.545 90.51C457.545 90.7033 457.619 90.8533 457.765 90.96C457.912 91.0667 458.105 91.12 458.345 91.12ZM462.571 94.2L463.721 91.67H463.421L461.491 87.04H462.881L464.271 90.53L465.721 87.04H467.081L463.931 94.2H462.571ZM472.51 92C471.99 92 471.574 91.8733 471.26 91.62C470.947 91.3667 470.79 90.9167 470.79 90.27V88.11H469.94V87.04H470.79L470.94 85.71H472.07V87.04H473.41V88.11H472.07V90.28C472.07 90.52 472.12 90.6867 472.22 90.78C472.327 90.8667 472.507 90.91 472.76 90.91H473.38V92H472.51ZM476.762 92.12C476.282 92.12 475.849 92.01 475.462 91.79C475.082 91.57 474.779 91.2667 474.552 90.88C474.332 90.4867 474.222 90.0333 474.222 89.52C474.222 89.0067 474.336 88.5567 474.562 88.17C474.789 87.7767 475.092 87.47 475.472 87.25C475.859 87.03 476.292 86.92 476.772 86.92C477.246 86.92 477.672 87.03 478.052 87.25C478.439 87.47 478.742 87.7767 478.962 88.17C479.189 88.5567 479.302 89.0067 479.302 89.52C479.302 90.0333 479.189 90.4867 478.962 90.88C478.742 91.2667 478.439 91.57 478.052 91.79C477.666 92.01 477.236 92.12 476.762 92.12ZM476.762 91.01C477.096 91.01 477.386 90.8867 477.632 90.64C477.879 90.3867 478.002 90.0133 478.002 89.52C478.002 89.0267 477.879 88.6567 477.632 88.41C477.386 88.1567 477.099 88.03 476.772 88.03C476.432 88.03 476.139 88.1567 475.892 88.41C475.652 88.6567 475.532 89.0267 475.532 89.52C475.532 90.0133 475.652 90.3867 475.892 90.64C476.139 90.8867 476.429 91.01 476.762 91.01ZM485.25 92.12C484.736 92.12 484.283 92.0333 483.89 91.86C483.496 91.68 483.186 91.4267 482.96 91.1C482.733 90.7667 482.616 90.3633 482.61 89.89H483.96C483.973 90.2167 484.09 90.4933 484.31 90.72C484.536 90.94 484.846 91.05 485.24 91.05C485.58 91.05 485.85 90.97 486.05 90.81C486.25 90.6433 486.35 90.4233 486.35 90.15C486.35 89.8633 486.26 89.64 486.08 89.48C485.906 89.32 485.673 89.19 485.38 89.09C485.086 88.99 484.773 88.8833 484.44 88.77C483.9 88.5833 483.486 88.3433 483.2 88.05C482.92 87.7567 482.78 87.3667 482.78 86.88C482.773 86.4667 482.87 86.1133 483.07 85.82C483.276 85.52 483.556 85.29 483.91 85.13C484.263 84.9633 484.67 84.88 485.13 84.88C485.596 84.88 486.006 84.9633 486.36 85.13C486.72 85.2967 487 85.53 487.2 85.83C487.406 86.13 487.516 86.4867 487.53 86.9H486.16C486.153 86.6533 486.056 86.4367 485.87 86.25C485.69 86.0567 485.436 85.96 485.11 85.96C484.83 85.9533 484.593 86.0233 484.4 86.17C484.213 86.31 484.12 86.5167 484.12 86.79C484.12 87.0233 484.193 87.21 484.34 87.35C484.486 87.4833 484.686 87.5967 484.94 87.69C485.193 87.7833 485.483 87.8833 485.81 87.99C486.156 88.11 486.473 88.25 486.76 88.41C487.046 88.57 487.276 88.7833 487.45 89.05C487.623 89.31 487.71 89.6467 487.71 90.06C487.71 90.4267 487.616 90.7667 487.43 91.08C487.243 91.3933 486.966 91.6467 486.6 91.84C486.233 92.0267 485.783 92.12 485.25 92.12ZM491.207 92.12C490.707 92.12 490.263 92.0133 489.877 91.8C489.49 91.5867 489.187 91.2867 488.967 90.9C488.747 90.5133 488.637 90.0667 488.637 89.56C488.637 89.0467 488.743 88.59 488.957 88.19C489.177 87.79 489.477 87.48 489.857 87.26C490.243 87.0333 490.697 86.92 491.217 86.92C491.703 86.92 492.133 87.0267 492.507 87.24C492.88 87.4533 493.17 87.7467 493.377 88.12C493.59 88.4867 493.697 88.8967 493.697 89.35C493.697 89.4233 493.693 89.5 493.687 89.58C493.687 89.66 493.683 89.7433 493.677 89.83H489.907C489.933 90.2167 490.067 90.52 490.307 90.74C490.553 90.96 490.85 91.07 491.197 91.07C491.457 91.07 491.673 91.0133 491.847 90.9C492.027 90.78 492.16 90.6267 492.247 90.44H493.547C493.453 90.7533 493.297 91.04 493.077 91.3C492.863 91.5533 492.597 91.7533 492.277 91.9C491.963 92.0467 491.607 92.12 491.207 92.12ZM491.217 87.96C490.903 87.96 490.627 88.05 490.387 88.23C490.147 88.4033 489.993 88.67 489.927 89.03H492.397C492.377 88.7033 492.257 88.4433 492.037 88.25C491.817 88.0567 491.543 87.96 491.217 87.96ZM494.773 92V87.04H495.903L496.003 87.88C496.156 87.5867 496.376 87.3533 496.663 87.18C496.956 87.0067 497.3 86.92 497.693 86.92C498.306 86.92 498.783 87.1133 499.123 87.5C499.463 87.8867 499.633 88.4533 499.633 89.2V92H498.353V89.32C498.353 88.8933 498.266 88.5667 498.093 88.34C497.92 88.1133 497.65 88 497.283 88C496.923 88 496.626 88.1267 496.393 88.38C496.166 88.6333 496.053 88.9867 496.053 89.44V92H494.773ZM503.137 92.12C502.67 92.12 502.254 92.0067 501.887 91.78C501.52 91.5533 501.23 91.2433 501.017 90.85C500.804 90.4567 500.697 90.01 500.697 89.51C500.697 89.01 500.804 88.5667 501.017 88.18C501.23 87.7867 501.52 87.48 501.887 87.26C502.254 87.0333 502.67 86.92 503.137 86.92C503.51 86.92 503.837 86.99 504.117 87.13C504.397 87.27 504.624 87.4667 504.797 87.72V84.8H506.077V92H504.937L504.797 91.29C504.637 91.51 504.424 91.7033 504.157 91.87C503.897 92.0367 503.557 92.12 503.137 92.12ZM503.407 91C503.82 91 504.157 90.8633 504.417 90.59C504.684 90.31 504.817 89.9533 504.817 89.52C504.817 89.0867 504.684 88.7333 504.417 88.46C504.157 88.18 503.82 88.04 503.407 88.04C503 88.04 502.664 88.1767 502.397 88.45C502.13 88.7233 501.997 89.0767 501.997 89.51C501.997 89.9433 502.13 90.3 502.397 90.58C502.664 90.86 503 91 503.407 91ZM512.033 92.11C511.52 92.11 511.073 92.0233 510.693 91.85C510.313 91.67 510.017 91.42 509.803 91.1C509.597 90.78 509.493 90.4067 509.493 89.98C509.493 89.5267 509.62 89.1167 509.873 88.75C510.127 88.3833 510.503 88.09 511.003 87.87C510.803 87.6367 510.66 87.4167 510.573 87.21C510.487 87.0033 510.443 86.7833 510.443 86.55C510.443 86.23 510.523 85.9467 510.683 85.7C510.843 85.4467 511.07 85.2467 511.363 85.1C511.663 84.9533 512.02 84.88 512.433 84.88C512.853 84.88 513.21 84.9567 513.503 85.11C513.797 85.2633 514.017 85.47 514.163 85.73C514.317 85.99 514.387 86.28 514.373 86.6H513.153C513.153 86.3533 513.08 86.17 512.933 86.05C512.793 85.9233 512.623 85.86 512.423 85.86C512.197 85.86 512.013 85.9233 511.873 86.05C511.74 86.1767 511.673 86.34 511.673 86.54C511.673 86.7067 511.727 86.8767 511.833 87.05C511.94 87.2233 512.097 87.4233 512.303 87.65L514.263 89.59C514.403 89.3633 514.55 89.1 514.703 88.8L514.923 88.36H516.233L515.883 89.04C515.617 89.58 515.35 90.0367 515.083 90.41L516.693 92H515.163L514.383 91.22C514.043 91.5333 513.68 91.76 513.293 91.9C512.913 92.04 512.493 92.11 512.033 92.11ZM510.733 89.9C510.733 90.2267 510.853 90.5033 511.093 90.73C511.34 90.95 511.667 91.06 512.073 91.06C512.653 91.06 513.157 90.8533 513.583 90.44L511.733 88.61C511.393 88.7567 511.14 88.94 510.973 89.16C510.813 89.38 510.733 89.6267 510.733 89.9ZM519.901 92V85H522.471C523.031 85 523.491 85.0967 523.851 85.29C524.217 85.4767 524.491 85.7333 524.671 86.06C524.851 86.38 524.941 86.7367 524.941 87.13C524.941 87.5567 524.827 87.9467 524.601 88.3C524.381 88.6533 524.034 88.91 523.561 89.07L525.011 92H523.541L522.241 89.24H521.181V92H519.901ZM521.181 88.3H522.391C522.817 88.3 523.131 88.1967 523.331 87.99C523.531 87.7833 523.631 87.51 523.631 87.17C523.631 86.8367 523.531 86.57 523.331 86.37C523.137 86.17 522.821 86.07 522.381 86.07H521.181V88.3ZM528.208 92.12C527.708 92.12 527.265 92.0133 526.878 91.8C526.492 91.5867 526.188 91.2867 525.968 90.9C525.748 90.5133 525.638 90.0667 525.638 89.56C525.638 89.0467 525.745 88.59 525.958 88.19C526.178 87.79 526.478 87.48 526.858 87.26C527.245 87.0333 527.698 86.92 528.218 86.92C528.705 86.92 529.135 87.0267 529.508 87.24C529.882 87.4533 530.172 87.7467 530.378 88.12C530.592 88.4867 530.698 88.8967 530.698 89.35C530.698 89.4233 530.695 89.5 530.688 89.58C530.688 89.66 530.685 89.7433 530.678 89.83H526.908C526.935 90.2167 527.068 90.52 527.308 90.74C527.555 90.96 527.852 91.07 528.198 91.07C528.458 91.07 528.675 91.0133 528.848 90.9C529.028 90.78 529.162 90.6267 529.248 90.44H530.548C530.455 90.7533 530.298 91.04 530.078 91.3C529.865 91.5533 529.598 91.7533 529.278 91.9C528.965 92.0467 528.608 92.12 528.208 92.12ZM528.218 87.96C527.905 87.96 527.628 88.05 527.388 88.23C527.148 88.4033 526.995 88.67 526.928 89.03H529.398C529.378 88.7033 529.258 88.4433 529.038 88.25C528.818 88.0567 528.545 87.96 528.218 87.96ZM534.205 92.12C533.698 92.12 533.252 92.01 532.865 91.79C532.478 91.57 532.172 91.2633 531.945 90.87C531.725 90.4767 531.615 90.0267 531.615 89.52C531.615 89.0133 531.725 88.5633 531.945 88.17C532.172 87.7767 532.478 87.47 532.865 87.25C533.252 87.03 533.698 86.92 534.205 86.92C534.838 86.92 535.372 87.0867 535.805 87.42C536.238 87.7467 536.515 88.2 536.635 88.78H535.285C535.218 88.54 535.085 88.3533 534.885 88.22C534.692 88.08 534.462 88.01 534.195 88.01C533.842 88.01 533.542 88.1433 533.295 88.41C533.048 88.6767 532.925 89.0467 532.925 89.52C532.925 89.9933 533.048 90.3633 533.295 90.63C533.542 90.8967 533.842 91.03 534.195 91.03C534.462 91.03 534.692 90.9633 534.885 90.83C535.085 90.6967 535.218 90.5067 535.285 90.26H536.635C536.515 90.82 536.238 91.27 535.805 91.61C535.372 91.95 534.838 92.12 534.205 92.12ZM540.181 92.12C539.681 92.12 539.238 92.0133 538.851 91.8C538.464 91.5867 538.161 91.2867 537.941 90.9C537.721 90.5133 537.611 90.0667 537.611 89.56C537.611 89.0467 537.718 88.59 537.931 88.19C538.151 87.79 538.451 87.48 538.831 87.26C539.218 87.0333 539.671 86.92 540.191 86.92C540.678 86.92 541.108 87.0267 541.481 87.24C541.854 87.4533 542.144 87.7467 542.351 88.12C542.564 88.4867 542.671 88.8967 542.671 89.35C542.671 89.4233 542.668 89.5 542.661 89.58C542.661 89.66 542.658 89.7433 542.651 89.83H538.881C538.908 90.2167 539.041 90.52 539.281 90.74C539.528 90.96 539.824 91.07 540.171 91.07C540.431 91.07 540.648 91.0133 540.821 90.9C541.001 90.78 541.134 90.6267 541.221 90.44H542.521C542.428 90.7533 542.271 91.04 542.051 91.3C541.838 91.5533 541.571 91.7533 541.251 91.9C540.938 92.0467 540.581 92.12 540.181 92.12ZM540.191 87.96C539.878 87.96 539.601 88.05 539.361 88.23C539.121 88.4033 538.968 88.67 538.901 89.03H541.371C541.351 88.7033 541.231 88.4433 541.011 88.25C540.791 88.0567 540.518 87.96 540.191 87.96ZM544.438 86.27C544.204 86.27 544.011 86.2 543.858 86.06C543.711 85.92 543.638 85.7433 543.638 85.53C543.638 85.3167 543.711 85.1433 543.858 85.01C544.011 84.87 544.204 84.8 544.438 84.8C544.671 84.8 544.861 84.87 545.008 85.01C545.161 85.1433 545.238 85.3167 545.238 85.53C545.238 85.7433 545.161 85.92 545.008 86.06C544.861 86.2 544.671 86.27 544.438 86.27ZM543.798 92V87.04H545.078V92H543.798ZM547.754 92L545.934 87.04H547.274L548.534 90.79L549.794 87.04H551.134L549.304 92H547.754ZM554.107 92.12C553.607 92.12 553.164 92.0133 552.777 91.8C552.39 91.5867 552.087 91.2867 551.867 90.9C551.647 90.5133 551.537 90.0667 551.537 89.56C551.537 89.0467 551.644 88.59 551.857 88.19C552.077 87.79 552.377 87.48 552.757 87.26C553.144 87.0333 553.597 86.92 554.117 86.92C554.604 86.92 555.034 87.0267 555.407 87.24C555.78 87.4533 556.07 87.7467 556.277 88.12C556.49 88.4867 556.597 88.8967 556.597 89.35C556.597 89.4233 556.594 89.5 556.587 89.58C556.587 89.66 556.584 89.7433 556.577 89.83H552.807C552.834 90.2167 552.967 90.52 553.207 90.74C553.454 90.96 553.75 91.07 554.097 91.07C554.357 91.07 554.574 91.0133 554.747 90.9C554.927 90.78 555.06 90.6267 555.147 90.44H556.447C556.354 90.7533 556.197 91.04 555.977 91.3C555.764 91.5533 555.497 91.7533 555.177 91.9C554.864 92.0467 554.507 92.12 554.107 92.12ZM554.117 87.96C553.804 87.96 553.527 88.05 553.287 88.23C553.047 88.4033 552.894 88.67 552.827 89.03H555.297C555.277 88.7033 555.157 88.4433 554.937 88.25C554.717 88.0567 554.444 87.96 554.117 87.96ZM559.636 92L562.196 85H563.636L566.196 92H564.836L564.276 90.38H561.546L560.976 92H559.636ZM561.896 89.38H563.926L562.906 86.47L561.896 89.38ZM567.758 86.27C567.525 86.27 567.331 86.2 567.178 86.06C567.031 85.92 566.958 85.7433 566.958 85.53C566.958 85.3167 567.031 85.1433 567.178 85.01C567.331 84.87 567.525 84.8 567.758 84.8C567.991 84.8 568.181 84.87 568.328 85.01C568.481 85.1433 568.558 85.3167 568.558 85.53C568.558 85.7433 568.481 85.92 568.328 86.06C568.181 86.2 567.991 86.27 567.758 86.27ZM567.118 92V87.04H568.398V92H567.118ZM569.734 92V87.04H570.874L570.994 87.97C571.174 87.65 571.417 87.3967 571.724 87.21C572.037 87.0167 572.404 86.92 572.824 86.92V88.27H572.464C572.184 88.27 571.934 88.3133 571.714 88.4C571.494 88.4867 571.321 88.6367 571.194 88.85C571.074 89.0633 571.014 89.36 571.014 89.74V92H569.734ZM575.909 92C575.389 92 574.972 91.8733 574.659 91.62C574.346 91.3667 574.189 90.9167 574.189 90.27V88.11H573.339V87.04H574.189L574.339 85.71H575.469V87.04H576.809V88.11H575.469V90.28C575.469 90.52 575.519 90.6867 575.619 90.78C575.726 90.8667 575.906 90.91 576.159 90.91H576.779V92H575.909ZM578.598 86.27C578.365 86.27 578.171 86.2 578.018 86.06C577.871 85.92 577.798 85.7433 577.798 85.53C577.798 85.3167 577.871 85.1433 578.018 85.01C578.171 84.87 578.365 84.8 578.598 84.8C578.831 84.8 579.021 84.87 579.168 85.01C579.321 85.1433 579.398 85.3167 579.398 85.53C579.398 85.7433 579.321 85.92 579.168 86.06C579.021 86.2 578.831 86.27 578.598 86.27ZM577.958 92V87.04H579.238V92H577.958ZM580.574 92V87.04H581.704L581.814 87.71C581.974 87.47 582.184 87.28 582.444 87.14C582.711 86.9933 583.017 86.92 583.364 86.92C584.131 86.92 584.674 87.2167 584.994 87.81C585.174 87.5367 585.414 87.32 585.714 87.16C586.021 87 586.354 86.92 586.714 86.92C587.361 86.92 587.857 87.1133 588.204 87.5C588.551 87.8867 588.724 88.4533 588.724 89.2V92H587.444V89.32C587.444 88.8933 587.361 88.5667 587.194 88.34C587.034 88.1133 586.784 88 586.444 88C586.097 88 585.817 88.1267 585.604 88.38C585.397 88.6333 585.294 88.9867 585.294 89.44V92H584.014V89.32C584.014 88.8933 583.931 88.5667 583.764 88.34C583.597 88.1133 583.341 88 582.994 88C582.654 88 582.377 88.1267 582.164 88.38C581.957 88.6333 581.854 88.9867 581.854 89.44V92H580.574ZM592.349 92.12C591.849 92.12 591.406 92.0133 591.019 91.8C590.632 91.5867 590.329 91.2867 590.109 90.9C589.889 90.5133 589.779 90.0667 589.779 89.56C589.779 89.0467 589.886 88.59 590.099 88.19C590.319 87.79 590.619 87.48 590.999 87.26C591.386 87.0333 591.839 86.92 592.359 86.92C592.846 86.92 593.276 87.0267 593.649 87.24C594.022 87.4533 594.312 87.7467 594.519 88.12C594.732 88.4867 594.839 88.8967 594.839 89.35C594.839 89.4233 594.836 89.5 594.829 89.58C594.829 89.66 594.826 89.7433 594.819 89.83H591.049C591.076 90.2167 591.209 90.52 591.449 90.74C591.696 90.96 591.992 91.07 592.339 91.07C592.599 91.07 592.816 91.0133 592.989 90.9C593.169 90.78 593.302 90.6267 593.389 90.44H594.689C594.596 90.7533 594.439 91.04 594.219 91.3C594.006 91.5533 593.739 91.7533 593.419 91.9C593.106 92.0467 592.749 92.12 592.349 92.12ZM592.359 87.96C592.046 87.96 591.769 88.05 591.529 88.23C591.289 88.4033 591.136 88.67 591.069 89.03H593.539C593.519 88.7033 593.399 88.4433 593.179 88.25C592.959 88.0567 592.686 87.96 592.359 87.96ZM596.466 92.07C596.232 92.07 596.039 91.9967 595.886 91.85C595.739 91.7033 595.666 91.5267 595.666 91.32C595.666 91.1067 595.739 90.9267 595.886 90.78C596.039 90.6333 596.232 90.56 596.466 90.56C596.699 90.56 596.889 90.6333 597.036 90.78C597.189 90.9267 597.266 91.1067 597.266 91.32C597.266 91.5267 597.189 91.7033 597.036 91.85C596.889 91.9967 596.699 92.07 596.466 92.07Z" fill="#E2E2E2"/>
</g>
<defs>
<clipPath id="clip0_319_33">
<rect width="996" height="111" fill="white"/>
</clipPath>
<clipPath id="clip1_319_33">
<rect width="203" height="107" fill="white" transform="translate(838 118.492) rotate(-35.0192)"/>
</clipPath>
<clipPath id="clip2_319_33">
<rect width="203" height="107" fill="white" transform="matrix(-0.81896 -0.573851 -0.573851 0.81896 165.651 111.492)"/>
</clipPath>
</defs>
</svg>
